<?xml version="1.0" encoding="utf-8"?>
<!-- Generator: Adobe Illustrator 22.0.0, SVG Export Plug-In . SVG Version: 6.00 Build 0)  -->
<svg version="1.1" id="图层_1" xmlns="http://www.w3.org/2000/svg" xmlns:xlink="http://www.w3.org/1999/xlink" x="0px" y="0px"
	 viewBox="0 0 350 60" style="enable-background:new 0 0 350 60;" xml:space="preserve">
<style type="text/css">
	.st0{fill:#FFFFFF;}
</style>
<title>资源 1100</title>
<g id="图层_2_1_">
	<g id="图层_1-2">
		<path class="st0" d="M239.8,29.3c2.3-4.8,4-9.8,5.2-14.9c0.2-0.7,0-1.5-0.5-2c-0.4-0.7-1.1-1.1-1.9-1.1c-1.5-0.3-2.9,0.6-3.3,2
			c-0.8,3.4-1.9,6.8-3.2,10.1l-6.1-10c-0.4-0.6-1-1.1-1.8-1.2c-0.8-0.2-1.6-0.1-2.3,0.3c-0.7,0.3-1.1,0.9-1.3,1.6
			c-0.2,0.7,0,1.4,0.4,2l8.3,13.6c-2.5,4.8-5.5,9.4-8.9,13.6c-0.4,0.5-0.6,1.2-0.5,1.9c0.1,0.7,0.6,1.4,1.2,1.8h0.1
			c0.5,0.3,1,0.5,1.6,0.5c0.9,0,1.8-0.4,2.3-1.1c2.8-3.4,5.4-7.1,7.6-11l3.5,5.6c0.4,0.6,1,1.1,1.7,1.2c0.8,0.2,1.6,0.1,2.3-0.3
			c0.6-0.3,1.1-0.9,1.4-1.5c0.2-0.7,0.1-1.4-0.2-2L239.8,29.3z"/>
		<path class="st0" d="M268.2,43.2l-6.9-13c2.4-5,4.2-10.3,5.5-15.7c0.2-0.7,0-1.4-0.4-2c-0.4-0.6-1.1-1.1-1.9-1.1
			c-1.5-0.3-2.9,0.6-3.3,2c-0.9,3.5-2,7-3.3,10.3l-5.7-10.7c-0.4-0.7-1-1.2-1.7-1.4c-0.7-0.2-1.5-0.1-2.1,0.2
			c-0.7,0.2-1.3,0.8-1.5,1.5c-0.2,0.7-0.2,1.4,0.2,2l7.9,14.8c-2.5,4.6-5.4,9-8.7,13.1c-0.4,0.6-0.6,1.3-0.5,2
			c0.1,0.7,0.5,1.3,1.1,1.7l0.1,0.1c0.5,0.3,1.1,0.5,1.6,0.5c0.9,0,1.8-0.4,2.4-1.1c2.6-3.2,5-6.6,7.2-10.2l5,9.4
			c0.5,1,1.5,1.6,2.6,1.5l0,0c0.4,0,0.8-0.1,1.2-0.2l0.1-0.1c0.7-0.3,1.2-0.8,1.4-1.5C268.6,44.5,268.6,43.8,268.2,43.2z"/>
		<path class="st0" d="M266.2,0h-40.9c-5.4,0-9.7,4.3-9.7,9.7v47c0,1.7,1.4,3.1,3.1,3.1c1.7,0,3.1-1.4,3.1-3.1v-47
			c0-1.9,1.5-3.4,3.4-3.4h40.9c2.3,0,4.2,1.9,4.2,4.2v34.6c0,1.7-0.7,3.3-2,4.5l-5.2,4.8c-1.2,1.2-1.2,3.2,0,4.4
			c1.2,1.2,3,1.2,4.3,0.2l5.2-4.8c2.5-2.3,4-5.6,4-9V10.5C276.7,4.7,272,0,266.2,0C266.2,0,266.2,0,266.2,0z"/>
		<path class="st0" d="M107.4,5.4h24.2c1.5,0.1,2.8-1.1,2.9-2.7c0,0,0-0.1,0-0.1c-0.1-1.5-1.4-2.7-2.9-2.6H74.7
			c-1.5-0.1-2.8,1.1-2.9,2.6c0,0,0,0.1,0,0.1c0.1,1.5,1.3,2.7,2.8,2.6c0,0,0,0,0.1,0h26.5L99,13.1v0.1H82.8c-1.2,0-2.5,0.2-3.6,0.6
			c-2.2,0.8-4,2.4-5,4.5c-0.5,1-0.8,2.2-0.8,3.4v35.5c0.2,1.6,1.6,2.8,3.2,2.6c1.4-0.1,2.5-1.2,2.6-2.6V21.7c0-0.9,0.4-1.7,1.1-2.2
			c0.7-0.6,1.6-1,2.5-0.9h8.5v38.6c0.2,1.6,1.6,2.8,3.3,2.6c1.3-0.2,2.4-1.2,2.6-2.6V18.5h12.1v38.6c0.2,1.6,1.6,2.8,3.2,2.6
			c1.4-0.1,2.5-1.2,2.6-2.6V18.5h8.5c1,0,1.9,0.3,2.6,1c0.6,0.6,1,1.4,1,2.2l0,0v23.3c0,1.8-0.7,3.6-2,4.8l-5.2,5
			c-1,1.2-0.9,3.1,0.4,4.1c1,0.9,2.6,0.9,3.6,0.1l5.2-5c2.5-2.4,3.9-5.7,3.8-9.1V21.6l0,0c0-1.1-0.3-2.3-0.8-3.3
			c-1-2.1-2.8-3.7-5.1-4.5c-1.2-0.4-2.4-0.6-3.6-0.6H105l2.3-7.6C107.4,5.5,107.4,5.4,107.4,5.4z"/>
		<path class="st0" d="M201.5,28.4c0.5-1,0.8-2.2,0.8-3.3V8.5c0-1.2-0.2-2.3-0.8-3.3c-1-2.1-2.8-3.7-5-4.5c-1.2-0.4-2.4-0.6-3.6-0.7
			h-36.2c-1.2,0-2.5,0.3-3.6,0.7c-2.2,0.8-4,2.4-5,4.5c-0.6,1-0.9,2.2-0.9,3.4v16.6c0,1.1,0.3,2.3,0.8,3.3c0.9,2.1,2.8,3.8,5,4.5
			c1.1,0.5,2.4,0.7,3.6,0.7h36.2c1.2,0,2.5-0.2,3.6-0.7C198.7,32.1,200.5,30.5,201.5,28.4z M192.9,28.3h-15.4v-9h19v5.9
			c0,0.8-0.4,1.6-1,2.2C194.8,27.9,193.9,28.3,192.9,28.3L192.9,28.3z M196.5,8.5V14h-19V5.4h15.4c0.9,0,1.8,0.3,2.5,0.9
			C196.1,6.9,196.5,7.7,196.5,8.5L196.5,8.5z M171.6,19.3v9h-14.9c-0.9,0-1.8-0.4-2.5-1c-0.7-0.5-1.1-1.3-1.1-2.2v-5.8H171.6z
			 M156.7,5.4h14.9V14h-18.5V8.5c0-0.9,0.4-1.7,1.1-2.2C154.9,5.7,155.8,5.4,156.7,5.4z"/>
		<path class="st0" d="M151.6,34.5L151.6,34.5c-1.6-0.2-3,0.7-3.3,2.2c-0.5,3.1-1.1,6.2-2,9.2c-1,3.1-2,5.8-3,8.1
			c-0.3,0.6-0.3,1.3-0.1,1.9c0.3,0.7,0.9,1.3,1.6,1.5h0.1c0.3,0.2,0.7,0.2,1.1,0.2c0.4,0,0.8-0.1,1.1-0.2c0.7-0.2,1.3-0.8,1.6-1.4
			c1.2-3.1,2.2-5.8,3.1-8.5c1-3.3,1.7-6.7,2.2-10.1c0.1-0.7,0-1.4-0.5-2C153.1,34.9,152.4,34.6,151.6,34.5z"/>
		<path class="st0" d="M206.2,54.6l-6-18.3c-0.5-1.1-1.5-1.8-2.8-1.8c-0.2,0-0.4,0-0.7,0.1h-0.2c-0.8,0.2-1.5,0.7-1.9,1.4
			c-0.3,0.6-0.4,1.3-0.1,2l6,18.2c0.5,1.4,2.1,2.2,3.5,1.8l0,0c0.8-0.2,1.5-0.7,1.9-1.4C206.4,56,206.4,55.3,206.2,54.6z"/>
		<g id="_编组_">
			<g id="_编组_2">
				<g id="_编组_3">
					<path class="st0" d="M191,48.9c0.1-0.4,0.2-0.9,0.3-1.3c0.9-6.2-3.4-12.1-9.6-13c0,0,0,0,0,0c-5-0.7-9.6,2.7-10.4,7.7
						c-0.6,4.1,2.2,7.8,6.3,8.4c0,0,0,0,0,0c1.3,0.2,2.5-0.7,2.7-2s-0.7-2.5-2-2.7c-1.4-0.2-2.4-1.6-2.2-3c0.4-2.4,2.6-4,5-3.7
						c0,0,0,0,0,0c3.6,0.5,6.2,3.9,5.6,7.6c-0.8,5.3-5.8,9-11.1,8.2c-7.6-1.1-12.8-8.2-11.7-15.8c0.1-1.3-0.9-2.5-2.2-2.6
						c-1.2-0.1-2.3,0.7-2.5,1.9c-1.5,10.2,5.6,19.7,15.8,21.2C182.2,60.9,189.2,56.2,191,48.9z"/>
				</g>
			</g>
		</g>
		<path class="st0" d="M59.3,34.1h-17c2.9-2.8,7.5-7.9,8.7-10c0.2-0.4,0.4-0.8,0.4-1.2c-0.1-1.5-1.4-2.7-3-2.6H9.6
			c-1.4-0.2-2.8,0.9-2.9,2.3c-0.2,1.4,0.9,2.8,2.3,2.9c0.2,0,0.4,0,0.6,0h33.2c-4,3.5-4.9,5.2-9,8.6h-30c-1.5-0.1-2.7,1-2.8,2.5
			s1,2.7,2.5,2.8c0.1,0,0.2,0,0.3,0h28.2V45c0,1.8-0.7,3.5-2,4.8l-5.2,5c-1,1.2-0.9,3.1,0.4,4.1c1,0.9,2.6,0.9,3.6,0.1l5.2-5
			c2.5-2.3,3.9-5.7,3.8-9.1v-5.5h21.5c1.5,0.1,2.7-1,2.8-2.5c0.1-1.5-1-2.7-2.5-2.8C59.5,34.1,59.4,34.1,59.3,34.1z"/>
		<path class="st0" d="M56.3,7.9l1.1-4c0-0.1,0-0.2,0-0.3c-0.1-1.3-1-2.4-2.3-2.6c0,0-2.4-0.6-3.2,1.3c0,0.1-0.1,0.2-0.1,0.3
			c0,0.1-0.1,0.2-0.1,0.3l-1.3,4.7v0.1H34.7v-5C34.5,1.1,33.2,0,31.6,0c-1.5,0-2.8,1.1-2.9,2.7v5H13.1l0,0L11.8,3
			c0-0.1-0.1-0.2-0.1-0.3C11.1,1.3,9.5,0.6,8.1,1C6.8,1.3,5.9,2.4,5.9,3.7c0,0.1,0,0.3,0.1,0.4L7,7.9C2.8,8.9,0,12.1,0,16v1.2
			c0.1,1.5,1.4,2.7,2.9,2.7c0,0,0,0,0.1,0c1.5,0.1,2.8-1.1,2.9-2.6c0,0,0,0,0,0v-1.2c0.2-1.8,1.7-3.2,3.5-3.1h44.4
			c1.8,0,3.4,1.3,3.6,3.1v1.2c0.1,1.5,1.3,2.7,2.9,2.7h0.1c1.5,0.1,2.8-1.1,2.9-2.6c0,0,0,0,0,0v-1.2C63.4,12.2,60.5,8.9,56.3,7.9z"
			/>
		<path class="st0" d="M290.4,15.3h-0.1c-1.5,0-2.8,1-2.8,2.2c0,6.5-0.2,12.4-0.7,17.9c-0.4,4.5-0.8,10.2-1.4,14.5
			c-0.1,0.5,0.1,1.1,0.4,1.5c0.5,0.6,1.3,1,2.1,1h0.1h0.4c1.3,0.1,2.4-0.8,2.8-2c0.6-4.8,1-10.2,1.4-14.5c0.5-6.6,0.7-12.4,0.7-18.3
			C293.2,16.3,291.9,15.3,290.4,15.3z"/>
		<path class="st0" d="M308.4,8.3h-6.8V2.9c-0.1-1.5-1.3-2.7-2.8-2.6c0,0,0,0-0.1,0h-0.1c-1.5-0.1-2.8,1.1-2.9,2.6c0,0,0,0,0,0v5.3
			h-6.6c-1.5,0-2.8,1.2-2.9,2.7c0.1,1.5,1.4,2.7,2.9,2.6h6.6v43.6c0.1,1.5,1.3,2.7,2.8,2.6c0,0,0,0,0.1,0h0.1
			c1.5,0.1,2.8-1.1,2.9-2.6c0,0,0,0,0-0.1V13.7h6.8c1.5,0,2.8-1.2,2.9-2.7c0,0,0,0,0-0.1C311.2,9.4,309.9,8.2,308.4,8.3z"/>
		<path class="st0" d="M306.9,15.4c-1.6,0-2.8,1-2.8,2.3v32.9c0,1.3,1.2,2.3,2.8,2.3h0.1c1.4,0.1,2.7-0.9,2.8-2.3V17.7
			C309.8,16.5,308.5,15.4,306.9,15.4z"/>
		<path class="st0" d="M344.6,27.2c0.4,0.6,1.1,1,1.8,1.1c0.7,0.1,1.5,0,2.1-0.4l0.3-0.1c0.6-0.4,1-1.1,1.2-1.8
			c0.1-0.6-0.1-1.3-0.5-1.8l-7.7-10.4c-0.4-0.6-1.1-1-1.8-1.1c-0.7-0.1-1.5,0-2.1,0.4l-0.3,0.1c-0.6,0.4-1,1-1.2,1.7
			c-0.1,0.7,0,1.4,0.5,2l3.7,5c-0.1,0.1-0.2,0.3-0.3,0.4c-1.7,3.1-3.5,6.2-5.5,9.1l-0.6,0.9c-0.6,1-1.3,1.9-1.9,2.8L322,23.3
			l-0.1-0.1c1.6-2.1,3.1-4.3,4.4-6.5c0.4-0.6,0.5-1.3,0.3-1.9c-0.2-0.8-0.7-1.4-1.4-1.8l-0.3-0.1c-1.3-0.5-2.9-0.1-3.7,1.1
			c-2.1,3.5-4.5,6.9-7.3,10c-0.5,0.5-0.7,1.2-0.7,1.9c0,0.7,0.4,1.4,1,1.9c0.6,0.4,1.4,0.6,2.2,0.6c0.7-0.1,1.3-0.4,1.8-0.9l10.5,12
			c-4.2,5.2-8.7,11.3-13.7,15.7c-0.6,0.5-0.9,1.2-0.9,1.9c0,0.7,0.3,1.4,0.8,1.9c0.6,0.5,1.3,0.8,2,0.8c0.7,0,1.5-0.2,2-0.7
			c4.9-4.4,9.4-9.1,13.6-14.2l0,0l11.9,14c0.6,0.6,1.4,1,2.2,1c0.7,0,1.3-0.2,1.9-0.6c0.6-0.4,1-1.1,1.1-1.8
			c0.1-0.7-0.2-1.4-0.7-1.9l-12.9-16.2c2.9-4.1,5.6-8.3,8.1-12.7L344.6,27.2z"/>
		<path class="st0" d="M347,6h-12.9V2.6c0-1.5-1.2-2.7-2.7-2.7c-1.5,0-2.7,1.2-2.7,2.7V6h-12.5c-1.4,0-2.6,1.1-2.6,2.6v0.1
			c0,1.4,1.1,2.6,2.6,2.6c0,0,0,0,0.1,0H347c1.4,0,2.6-1.1,2.6-2.6c0,0,0,0,0-0.1V8.6C349.6,7.2,348.5,6,347,6C347,6,347,6,347,6z"
			/>
	</g>
</g>
</svg>
