<svg xmlns="http://www.w3.org/2000/svg" viewBox="0 0 400 64"><defs><style>.cls-1{fill:#fff;}</style></defs><title>资源 12</title><g id="图层_2" data-name="图层 2"><g id="图层_1-2" data-name="图层 1"><path class="cls-1" d="M57.05,8.36l1-3.77A3,3,0,1,0,52.27,3L50.94,8H35.08V3a3,3,0,0,0-6,0V8H13.15L11.86,3A3,3,0,1,0,6.05,4.52L7,8.21C2.8,9.17,0,13,0,18.29a3,3,0,0,0,6,0c0-1,.22-4.32,3.1-4.32H53.57C57,14,58,15,58,18.29a3,3,0,0,0,6,0C64,12.89,61.56,9.46,57.05,8.36Z"/><path class="cls-1" d="M60.19,36.29H43.57c.57-.59,1.15-1.21,1.74-1.88a64.16,64.16,0,0,0,5.14-6.6,4.12,4.12,0,0,0,.08-4.55,4,4,0,0,0-3.66-1.84H9.59a3,3,0,0,0,0,6H43.32c-.79,1-1.63,2-2.49,3a59.55,59.55,0,0,1-6.07,5.86H4a3,3,0,0,0,0,6H32l.13,7.61c.05,2.23-2.65,4.78-5.77,7.73l-1.27,1.2a3,3,0,0,0,4.15,4.34L30.5,62c4-3.77,7.76-7.34,7.65-12.2L38,42.29H60.19a3,3,0,0,0,0-6Z"/><path class="cls-1" d="M289.7,31l-1.77,1.07V15.15h1.71a3,3,0,0,0,0-6h-1.71V3a3,3,0,0,0-6,0V9.15h-4.74a3,3,0,0,0,0,6h4.74V35.74l-6.68,4.07a3,3,0,1,0,3.12,5.13l3.49-2.13-.07,7c.05,2.27-2.66,4.86-5.79,7.85l-1.27,1.21a3,3,0,0,0,4.17,4.32L280.13,62c4-3.81,7.76-7.41,7.65-12.22l.11-10.61,4.93-3A3,3,0,0,0,289.7,31Z"/><path class="cls-1" d="M333.8,16h-1.38l1.2-4.56a3,3,0,0,0-5.8-1.54l-1.59,6s0,.05,0,.08L319,16V6.84h13.67a3,3,0,0,0,0-6H298.94a3,3,0,0,0,0,6h14V16l-7.42,0s0-.09,0-.13l-1.6-6a3,3,0,0,0-5.8,1.54l1.23,4.65h-1.28a3,3,0,1,0,0,6h.29l-1.63,6.28A3,3,0,0,0,298.91,32a3.2,3.2,0,0,0,.75.09,3,3,0,0,0,2.9-2.24l2-7.8L313,22v5.51a3,3,0,0,0,6,0V22l8.52,0,2,7.87a3,3,0,0,0,2.9,2.24,3.29,3.29,0,0,0,.76-.09,3,3,0,0,0,2.15-3.66L333.7,22h.11a3,3,0,0,0,0-6Z"/><path class="cls-1" d="M327,32.73h-22a9,9,0,0,0-9,9v13a9,9,0,0,0,9,9h22a9,9,0,0,0,9-9v-13A9,9,0,0,0,327,32.73Zm3,9v3.5H319l0-6.5h8A3,3,0,0,1,330,41.73Zm-25-3h8l0,6.5h-11v-3.5A3,3,0,0,1,304.94,38.73Zm-3,16v-3.5h11l0,6.5h-8A3,3,0,0,1,301.94,54.73Zm25,3h-8l0-6.5h11v3.5A3,3,0,0,1,327,57.73Z"/><path class="cls-1" d="M345,17.48a3,3,0,1,0,.5,6c2.05-.17,3.53.05,4.17.64s.76,1.49.76,3.13V37L350,50.6v.16c0,1.87-2.76,4.3-5.72,6.87L343,58.73a3,3,0,1,0,4,4.51l1.24-1.08c4-3.5,7.85-6.81,7.79-11.46L356.39,37V27.23c0-2.18-.28-5.33-2.7-7.55C351.72,17.87,348.86,17.15,345,17.48Z"/><path class="cls-1" d="M351.79,13.34a3,3,0,0,0,3-3V3a3,3,0,0,0-6,0v7.34A3,3,0,0,0,351.79,13.34Z"/><path class="cls-1" d="M399.81,59.15l-6-15.88H397a3,3,0,0,0,0-6H382.22V34.19h7.92a9,9,0,0,0,9-9V9.78a9,9,0,0,0-9-9H368.3a9,9,0,0,0-9,9V25.19a9,9,0,0,0,9,9h7.92v3.08H362a3,3,0,0,0,0,6h2a48.6,48.6,0,0,1-5.59,14.95,3,3,0,0,0,1,4.13,2.94,2.94,0,0,0,1.58.45,3,3,0,0,0,2.55-1.42c4.16-6.7,6-14.62,6.6-18.11h6.14V61a3,3,0,0,0,6,0V43.27h5.22l6.75,18a3,3,0,0,0,2.81,2,3,3,0,0,0,1.05-.19A3,3,0,0,0,399.81,59.15Zm-9.67-31h-8l0-7.71h10.93v4.71A3,3,0,0,1,390.14,28.19Zm3-18.41v4.7H382.23l0-7.7h7.88A3,3,0,0,1,393.14,9.78Zm-24.84-3h8l0,7.7H365.3V9.78A3,3,0,0,1,368.3,6.78Zm-3,18.41V20.48h10.91l0,7.71H368.3A3,3,0,0,1,365.3,25.19Z"/><path class="cls-1" d="M147.36,37a3,3,0,0,0-3.44,2.49c0,.1-1.65,10.28-5.24,18.06A3,3,0,1,0,144.12,60c3.94-8.53,5.66-19.19,5.73-19.64A3,3,0,0,0,147.36,37Z"/><path class="cls-1" d="M196.32,39a3,3,0,0,0-5.73,1.78l5.95,19.09A3,3,0,0,0,199.4,62a3.09,3.09,0,0,0,.89-.13,3,3,0,0,0,2-3.76Z"/><path class="cls-1" d="M176.79,37.33c-4.85,0-8.67,2.69-9.74,6.84A8.67,8.67,0,0,0,171.36,54a3,3,0,1,0,2.9-5.25,2.73,2.73,0,0,1-1.4-3.11c.38-1.46,1.85-2.34,3.93-2.34a4.59,4.59,0,0,1,4.34,2.57,10,10,0,0,1,.43,5.7c-.35,1.4-2.57,8.27-12.08,5.9-4.68-1.16-7.73-3.92-9.06-8.19a17.34,17.34,0,0,1-.65-6.7,3,3,0,0,0-5.94-.85c-.87,6,1,18.27,14.2,21.56a21.64,21.64,0,0,0,5.18.68,14.43,14.43,0,0,0,7.66-2.06A15.44,15.44,0,0,0,187.38,53a15.64,15.64,0,0,0-.8-9.65A10.59,10.59,0,0,0,176.79,37.33Z"/><path class="cls-1" d="M197.91,26.53V9a9,9,0,0,0-9-9H151.46a9,9,0,0,0-9,9V26.53a9,9,0,0,0,9,9h37.45A9,9,0,0,0,197.91,26.53ZM191.91,9v6.37h-18.5l0-9.37h15.46A3,3,0,0,1,191.91,9ZM151.46,6h16l0,9.37H148.46V9A3,3,0,0,1,151.46,6Zm-3,20.53V21.37h18.93l0,8.16H151.46A3,3,0,0,1,148.46,26.53Zm40.45,3H173.35l0-8.16h18.52v5.16A3,3,0,0,1,188.91,29.53Z"/><path class="cls-1" d="M130.2,0h-58a3,3,0,0,0,0,6H99.39l-2.28,8a.34.34,0,0,0,0,.1H79.89a9,9,0,0,0-9,9V60.93a3,3,0,0,0,6,0V23.08a3,3,0,0,1,3-3h9.27V60.75a3,3,0,0,0,6,0V20.08h12.25V60.75a3,3,0,0,0,6,0V20.08h9.38a3,3,0,0,1,3,3V49.84s0,.08,0,.13c0,2-2.67,4.44-5.48,7l-1.95,1.82A3,3,0,0,0,120.44,64a3,3,0,0,0,2.08-.83c.63-.6,1.26-1.18,1.87-1.75,3.87-3.58,7.52-7,7.42-11.65,0,0,0-.08,0-.13V23.08a9,9,0,0,0-9-9H103.32L105.63,6H130.2a3,3,0,0,0,0-6Z"/><path class="cls-1" d="M265.6,57H263V23.67a9,9,0,0,0-9-8.89H241.05l0-4.76H263.9a3,3,0,0,0,0-6H241.14V3a3,3,0,0,0-6-.06V4H212.32a3,3,0,0,0,0,6h22.77l0,4.76H222.23a9,9,0,0,0-9,8.89V57H210.6a3,3,0,0,0,0,6h55a3,3,0,0,0,0-6ZM257,36.3H219.23V31.71H257Zm-37.74,6H257v3.89H219.23Zm3-21.52H254a3,3,0,0,1,3,2.89v2H219.23v-2A3,3,0,0,1,222.23,20.78Zm-3,31.41H257V57H219.23Z"/></g></g></svg>